<svg xmlns="http://www.w3.org/2000/svg"  viewBox="0 0 48 48" width="48px" height="48px"><path fill="#2196f3" d="M44,24c0,11.046-8.954,20-20,20S4,35.046,4,24S12.954,4,24,4S44,12.954,44,24"/><path fill="#eee" d="M40,24c0,8.837-7.163,16-16,16S8,32.837,8,24S15.163,8,24,8S40,15.163,40,24"/><polygon fill="#90a4ae" points="33.899,33.899 25.414,22.586 14.101,14.101 22.586,25.414"/><polygon fill="#90a4ae" points="37.999,24 24,22 10.001,24 24,26"/><polygon fill="#90a4ae" points="33.899,14.101 22.586,22.586 14.101,33.899 25.414,25.415"/><polygon fill="#3f51b5" points="24,37.999 27,24 21,24"/><polygon fill="#ff3d00" points="21,24 27,24 24,10.001"/><path fill="#fff" d="M25.061,22.939c0.586,0.586,0.586,1.535,0,2.121c-0.586,0.586-1.535,0.586-2.121,0	c-0.586-0.586-0.585-1.536,0-2.121C23.526,22.353,24.474,22.353,25.061,22.939"/></svg>